<svg xmlns="http://www.w3.org/2000/svg" width="540" height="160" viewBox="0 0 540 160">
  <rect width="540" height="160" fill="#0F0A08"></rect>
  <g transform="translate(16,16)"><rect x="16" y="0" width="16" height="16" fill="#FF4D00"></rect><rect x="48" y="0" width="16" height="16" fill="#FF4D00"></rect><rect x="64" y="0" width="16" height="16" fill="#FF4D00"></rect><rect x="32" y="16" width="16" height="16" fill="#FF4D00"></rect><rect x="64" y="16" width="16" height="16" fill="#FF4D00"></rect><rect x="80" y="16" width="16" height="16" fill="#FF4D00"></rect><rect x="96" y="16" width="16" height="16" fill="#FF4D00"></rect><rect x="0" y="32" width="16" height="16" fill="#FF4D00"></rect><rect x="64" y="32" width="16" height="16" fill="#FF4D00"></rect><rect x="80" y="32" width="16" height="16" fill="#FFD60A"></rect><rect x="96" y="32" width="16" height="16" fill="#FF4D00"></rect><rect x="112" y="32" width="16" height="16" fill="#FF4D00"></rect><rect x="32" y="48" width="16" height="16" fill="#FF4D00"></rect><rect x="48" y="48" width="16" height="16" fill="#FF4D00"></rect><rect x="64" y="48" width="16" height="16" fill="#FFD60A"></rect><rect x="80" y="48" width="16" height="16" fill="#FFD60A"></rect><rect x="96" y="48" width="16" height="16" fill="#FFD60A"></rect><rect x="112" y="48" width="16" height="16" fill="#FF4D00"></rect><rect x="16" y="64" width="16" height="16" fill="#FF4D00"></rect><rect x="32" y="64" width="16" height="16" fill="#FFD60A"></rect><rect x="48" y="64" width="16" height="16" fill="#FFF6CC"></rect><rect x="64" y="64" width="16" height="16" fill="#FFD60A"></rect><rect x="80" y="64" width="16" height="16" fill="#FFF6CC"></rect><rect x="96" y="64" width="16" height="16" fill="#FFD60A"></rect><rect x="112" y="64" width="16" height="16" fill="#FF4D00"></rect><rect x="16" y="80" width="16" height="16" fill="#FF4D00"></rect><rect x="32" y="80" width="16" height="16" fill="#FFD60A"></rect><rect x="48" y="80" width="16" height="16" fill="#FFD60A"></rect><rect x="64" y="80" width="16" height="16" fill="#FFF6CC"></rect><rect x="80" y="80" width="16" height="16" fill="#FFF6CC"></rect><rect x="96" y="80" width="16" height="16" fill="#FF4D00"></rect><rect x="112" y="80" width="16" height="16" fill="#FF4D00"></rect><rect x="16" y="96" width="16" height="16" fill="#FF4D00"></rect><rect x="32" y="96" width="16" height="16" fill="#FF4D00"></rect><rect x="48" y="96" width="16" height="16" fill="#FFD60A"></rect><rect x="64" y="96" width="16" height="16" fill="#FFF6CC"></rect><rect x="80" y="96" width="16" height="16" fill="#FF4D00"></rect><rect x="96" y="96" width="16" height="16" fill="#FF4D00"></rect><rect x="32" y="112" width="16" height="16" fill="#FF4D00"></rect><rect x="48" y="112" width="16" height="16" fill="#FF4D00"></rect><rect x="64" y="112" width="16" height="16" fill="#FF4D00"></rect><rect x="80" y="112" width="16" height="16" fill="#FF4D00"></rect></g>
  <text x="170" y="105" font-family="&#39;JetBrains Mono&#39;,&#39;Space Mono&#39;,ui-monospace,monospace" font-size="56" font-weight="800" fill="#FFF6CC" letter-spacing="-1">CODER<tspan fill="#FF4D00">FIRE</tspan></text>
</svg>