<svg xmlns="http://www.w3.org/2000/svg" width="256" height="256" viewBox="0 0 256 256" shape-rendering="crispEdges"><rect x="32" y="0" width="32" height="32" fill="#FF4D00"></rect><rect x="96" y="0" width="32" height="32" fill="#FF4D00"></rect><rect x="128" y="0" width="32" height="32" fill="#FF4D00"></rect><rect x="64" y="32" width="32" height="32" fill="#FF4D00"></rect><rect x="128" y="32" width="32" height="32" fill="#FF4D00"></rect><rect x="160" y="32" width="32" height="32" fill="#FF4D00"></rect><rect x="192" y="32" width="32" height="32" fill="#FF4D00"></rect><rect x="0" y="64" width="32" height="32" fill="#FF4D00"></rect><rect x="128" y="64" width="32" height="32" fill="#FF4D00"></rect><rect x="160" y="64" width="32" height="32" fill="#FFD60A"></rect><rect x="192" y="64" width="32" height="32" fill="#FF4D00"></rect><rect x="224" y="64" width="32" height="32" fill="#FF4D00"></rect><rect x="64" y="96" width="32" height="32" fill="#FF4D00"></rect><rect x="96" y="96" width="32" height="32" fill="#FF4D00"></rect><rect x="128" y="96" width="32" height="32" fill="#FFD60A"></rect><rect x="160" y="96" width="32" height="32" fill="#FFD60A"></rect><rect x="192" y="96" width="32" height="32" fill="#FFD60A"></rect><rect x="224" y="96" width="32" height="32" fill="#FF4D00"></rect><rect x="32" y="128" width="32" height="32" fill="#FF4D00"></rect><rect x="64" y="128" width="32" height="32" fill="#FFD60A"></rect><rect x="96" y="128" width="32" height="32" fill="#FFF6CC"></rect><rect x="128" y="128" width="32" height="32" fill="#FFD60A"></rect><rect x="160" y="128" width="32" height="32" fill="#FFF6CC"></rect><rect x="192" y="128" width="32" height="32" fill="#FFD60A"></rect><rect x="224" y="128" width="32" height="32" fill="#FF4D00"></rect><rect x="32" y="160" width="32" height="32" fill="#FF4D00"></rect><rect x="64" y="160" width="32" height="32" fill="#FFD60A"></rect><rect x="96" y="160" width="32" height="32" fill="#FFD60A"></rect><rect x="128" y="160" width="32" height="32" fill="#FFF6CC"></rect><rect x="160" y="160" width="32" height="32" fill="#FFF6CC"></rect><rect x="192" y="160" width="32" height="32" fill="#FF4D00"></rect><rect x="224" y="160" width="32" height="32" fill="#FF4D00"></rect><rect x="32" y="192" width="32" height="32" fill="#FF4D00"></rect><rect x="64" y="192" width="32" height="32" fill="#FF4D00"></rect><rect x="96" y="192" width="32" height="32" fill="#FFD60A"></rect><rect x="128" y="192" width="32" height="32" fill="#FFF6CC"></rect><rect x="160" y="192" width="32" height="32" fill="#FF4D00"></rect><rect x="192" y="192" width="32" height="32" fill="#FF4D00"></rect><rect x="64" y="224" width="32" height="32" fill="#FF4D00"></rect><rect x="96" y="224" width="32" height="32" fill="#FF4D00"></rect><rect x="128" y="224" width="32" height="32" fill="#FF4D00"></rect><rect x="160" y="224" width="32" height="32" fill="#FF4D00"></rect></svg>