<svg xmlns="http://www.w3.org/2000/svg" width="32" height="32" viewBox="0 0 32 32" shape-rendering="crispEdges"><rect x="4" y="0" width="4" height="4" fill="#FF4D00"></rect><rect x="12" y="0" width="4" height="4" fill="#FF4D00"></rect><rect x="16" y="0" width="4" height="4" fill="#FF4D00"></rect><rect x="8" y="4" width="4" height="4" fill="#FF4D00"></rect><rect x="16" y="4" width="4" height="4" fill="#FF4D00"></rect><rect x="20" y="4" width="4" height="4" fill="#FF4D00"></rect><rect x="24" y="4" width="4" height="4" fill="#FF4D00"></rect><rect x="0" y="8" width="4" height="4" fill="#FF4D00"></rect><rect x="16" y="8" width="4" height="4" fill="#FF4D00"></rect><rect x="20" y="8" width="4" height="4" fill="#FFD60A"></rect><rect x="24" y="8" width="4" height="4" fill="#FF4D00"></rect><rect x="28" y="8" width="4" height="4" fill="#FF4D00"></rect><rect x="8" y="12" width="4" height="4" fill="#FF4D00"></rect><rect x="12" y="12" width="4" height="4" fill="#FF4D00"></rect><rect x="16" y="12" width="4" height="4" fill="#FFD60A"></rect><rect x="20" y="12" width="4" height="4" fill="#FFD60A"></rect><rect x="24" y="12" width="4" height="4" fill="#FFD60A"></rect><rect x="28" y="12" width="4" height="4" fill="#FF4D00"></rect><rect x="4" y="16" width="4" height="4" fill="#FF4D00"></rect><rect x="8" y="16" width="4" height="4" fill="#FFD60A"></rect><rect x="12" y="16" width="4" height="4" fill="#FFF6CC"></rect><rect x="16" y="16" width="4" height="4" fill="#FFD60A"></rect><rect x="20" y="16" width="4" height="4" fill="#FFF6CC"></rect><rect x="24" y="16" width="4" height="4" fill="#FFD60A"></rect><rect x="28" y="16" width="4" height="4" fill="#FF4D00"></rect><rect x="4" y="20" width="4" height="4" fill="#FF4D00"></rect><rect x="8" y="20" width="4" height="4" fill="#FFD60A"></rect><rect x="12" y="20" width="4" height="4" fill="#FFD60A"></rect><rect x="16" y="20" width="4" height="4" fill="#FFF6CC"></rect><rect x="20" y="20" width="4" height="4" fill="#FFF6CC"></rect><rect x="24" y="20" width="4" height="4" fill="#FF4D00"></rect><rect x="28" y="20" width="4" height="4" fill="#FF4D00"></rect><rect x="4" y="24" width="4" height="4" fill="#FF4D00"></rect><rect x="8" y="24" width="4" height="4" fill="#FF4D00"></rect><rect x="12" y="24" width="4" height="4" fill="#FFD60A"></rect><rect x="16" y="24" width="4" height="4" fill="#FFF6CC"></rect><rect x="20" y="24" width="4" height="4" fill="#FF4D00"></rect><rect x="24" y="24" width="4" height="4" fill="#FF4D00"></rect><rect x="8" y="28" width="4" height="4" fill="#FF4D00"></rect><rect x="12" y="28" width="4" height="4" fill="#FF4D00"></rect><rect x="16" y="28" width="4" height="4" fill="#FF4D00"></rect><rect x="20" y="28" width="4" height="4" fill="#FF4D00"></rect></svg>